HIERARCHY
ROOT Hips
{
	OFFSET 0.000000 0.000000 0.000000 
	CHANNELS 6 Xposition Yposition Zposition Zrotation Xrotation Yrotation
	JOINT Spine
	{
		OFFSET -0.000000 8.280624 0.000000 
		CHANNELS 3 Zrotation Xrotation Yrotation
		JOINT Spine1
		{
			OFFSET -0.000000 24.860672 0.000000 
			CHANNELS 3 Zrotation Xrotation Yrotation
			JOINT Neck
			{
				OFFSET -0.000000 24.758574 2.250779 
				CHANNELS 3 Zrotation Xrotation Yrotation
				JOINT Head
				{
					OFFSET -0.000000 14.137651 -2.019665 
					CHANNELS 3 Zrotation Xrotation Yrotation
					End Site
					{
						OFFSET -0.000000 25.245806 0.000000 
					}
				}
			}
			JOINT LeftShoulder
			{
				OFFSET 4.021533 22.370487 -0.301823 
				CHANNELS 3 Zrotation Xrotation Yrotation
				JOINT LeftArm
				{
					OFFSET 12.928750 0.000000 0.000000 
					CHANNELS 3 Zrotation Xrotation Yrotation
					JOINT LeftForeArm
					{
						OFFSET 29.110218 0.000000 0.000000 
						CHANNELS 3 Zrotation Xrotation Yrotation
						JOINT LeftHand
						{
							OFFSET 26.112843 0.000000 0.000000 
							CHANNELS 3 Zrotation Xrotation Yrotation
							End Site
							{
								OFFSET 15.147485 0.000000 0.000000 
							}
						}
					}
				}
			}
			JOINT RightShoulder
			{
				OFFSET -4.040554 22.370487 -0.301823 
				CHANNELS 3 Zrotation Xrotation Yrotation
				JOINT RightArm
				{
					OFFSET -12.928750 0.000000 0.000000 
					CHANNELS 3 Zrotation Xrotation Yrotation
					JOINT RightForeArm
					{
						OFFSET -29.110218 0.000000 0.000000 
						CHANNELS 3 Zrotation Xrotation Yrotation
						JOINT RightHand
						{
							OFFSET -26.112843 0.000000 0.000000 
							CHANNELS 3 Zrotation Xrotation Yrotation
							End Site
							{
								OFFSET -15.147485 0.000000 0.000000 
							}
						}
					}
				}
			}
		}
	}
	JOINT LeftUpLeg
	{
		OFFSET 10.098323 0.000000 0.000000 
		CHANNELS 3 Zrotation Xrotation Yrotation
		JOINT LeftLeg
		{
			OFFSET -0.000000 -44.180832 0.000000 
			CHANNELS 3 Zrotation Xrotation Yrotation
			JOINT LeftFoot
			{
				OFFSET -0.000000 -40.401024 0.000000 
				CHANNELS 3 Zrotation Xrotation Yrotation
				JOINT LeftToeBase
				{
					OFFSET -0.000000 -6.563910 15.147485 
					CHANNELS 3 Zrotation Xrotation Yrotation
					End Site
					{
						OFFSET -0.000000 0.000000 4.039329 
					}
				}
			}
		}
	}
	JOINT RightUpLeg
	{
		OFFSET -10.098323 0.000000 0.000000 
		CHANNELS 3 Zrotation Xrotation Yrotation
		JOINT RightLeg
		{
			OFFSET -0.000000 -44.180832 0.000000 
			CHANNELS 3 Zrotation Xrotation Yrotation
			JOINT RightFoot
			{
				OFFSET -0.000000 -40.401024 0.000000 
				CHANNELS 3 Zrotation Xrotation Yrotation
				JOINT RightToeBase
				{
					OFFSET -0.000000 -6.563910 15.147485 
					CHANNELS 3 Zrotation Xrotation Yrotation
					End Site
					{
						OFFSET -0.000000 0.000000 4.039329 
					}
				}
			}
		}
	}
}
MOTION
Frames: 12
Frame Time: 0.008333
-42.565182 93.362961 7.734802 5.516565 -0.131481 101.292786 -3.391001 11.882099 -8.871024 2.784728 0.791455 -9.243243 -1.883330 19.166058 31.212784 -17.255453 -9.880886 28.795620 4.433170 -1.985659 -25.098925 -12.048015 31.859396 -79.461578 -9.147495 -8.802067 -50.112423 12.559924 -13.063846 -0.485523 -3.946792 4.169062 8.874128 67.167664 0.410900 16.437220 29.754112 -17.393930 91.330780 -9.650853 -45.607388 20.287184 17.178251 -5.690139 5.160580 -0.697410 11.081361 9.242270 -4.325285 8.643394 7.685289 0.000000 0.000000 0.000000 -5.865430 -4.208692 -2.731109 -0.209057 25.723030 13.693125 7.056564 -8.025340 -18.863394 0.000000 0.000000 0.000000 
-42.614277 93.352821 8.179114 5.495782 -0.240349 100.889389 -3.365250 11.939283 -8.904848 2.649494 0.839257 -9.276253 -1.917329 19.381363 31.434063 -17.282942 -10.017254 28.998995 4.379595 -2.077072 -25.120518 -12.005481 31.627756 -79.704750 -8.514775 -8.668998 -50.001945 13.547314 -12.808871 -1.973597 -3.843748 4.152700 8.710756 67.007912 -1.019604 16.338652 29.750423 -15.431727 91.885010 -9.618182 -44.457191 21.446728 17.353849 -5.585679 4.298944 -0.657871 10.955881 9.306017 -4.359293 8.131193 7.639377 0.000000 0.000000 0.000000 -5.465629 -4.514583 -2.377796 -0.204238 25.905695 13.591166 6.813574 -7.987888 -18.797169 0.000000 0.000000 0.000000 
-42.665878 93.338463 8.601303 5.456221 -0.329525 100.479561 -3.366521 11.995063 -8.912526 2.545425 0.858062 -9.285371 -1.956798 19.592422 31.588102 -17.333591 -10.167284 29.123903 4.361273 -2.318744 -25.369394 -12.429500 31.490007 -79.503128 -7.824578 -8.288546 -49.964333 14.229612 -12.280028 -3.237888 -3.766011 4.138344 8.550322 66.908844 -0.379944 16.592495 28.414215 -16.209909 93.354004 -9.909581 -44.526260 21.245476 17.566589 -5.485185 3.184693 -0.810128 10.836047 9.687937 -4.168376 7.606801 7.456787 0.000000 0.000000 0.000000 -5.107965 -4.813015 -1.962486 -0.165951 26.057873 13.493549 6.556401 -7.971923 -18.750599 0.000000 0.000000 0.000000 
-42.717064 93.329735 8.996683 5.406851 -0.362145 100.055252 -3.345873 12.024941 -8.929431 2.336617 0.896873 -9.300219 -1.931983 19.716240 31.784622 -17.353952 -10.173318 29.325396 4.390390 -2.341460 -25.435270 -12.633779 31.124775 -79.614891 -7.033557 -7.945042 -49.786911 14.606180 -11.744519 -4.581946 -3.650523 4.096760 8.446351 66.610344 -1.657743 16.519299 28.454483 -14.294823 93.926590 -10.281492 -43.508446 22.486526 17.524000 -5.346751 2.925114 -0.427080 10.631851 9.162400 -4.365041 7.084886 7.262938 0.000000 0.000000 0.000000 -4.827694 -5.106751 -1.572003 -0.158703 26.223410 13.666742 6.314971 -7.989833 -18.864731 0.000000 0.000000 0.000000 
-42.771725 93.325218 9.406239 5.403481 -0.427914 99.605728 -3.333430 12.145644 -8.900386 2.208864 0.887122 -9.272230 -1.998503 19.916445 31.958187 -17.375160 -10.372464 29.468895 4.385470 -2.398287 -25.535185 -12.925421 30.764141 -79.659813 -6.377497 -7.636080 -49.778389 15.106327 -11.303617 -5.694122 -3.568989 4.050214 8.295756 66.359512 -1.911130 16.642849 27.709406 -13.891320 94.962669 -10.390008 -43.042427 23.237898 17.632214 -5.220815 2.253962 -0.350461 10.597697 9.118455 -4.424136 6.395233 7.027269 0.000000 0.000000 0.000000 -4.484549 -5.372083 -1.106884 -0.146518 26.400080 13.891614 6.092333 -7.974393 -19.079180 0.000000 0.000000 0.000000 
-42.829311 93.314453 9.792760 5.374198 -0.445533 99.186295 -3.359189 12.244655 -8.881842 2.086234 0.892048 -9.258501 -1.985018 19.993488 32.124172 -17.425556 -10.385839 29.631046 4.357121 -2.530357 -25.638754 -13.190310 30.488689 -79.721672 -5.950996 -7.568636 -49.848591 15.860266 -11.213348 -6.638415 -3.495778 3.979059 8.151480 66.153488 -2.753355 16.481195 27.520647 -12.651162 96.063026 -10.333747 -42.433773 23.759901 17.665133 -5.141713 1.650513 -0.246699 10.622224 9.017971 -4.498252 5.749949 6.827098 0.000000 0.000000 0.000000 -4.200528 -5.619730 -0.562477 -0.078790 26.524269 13.786483 5.885238 -7.971168 -19.107761 0.000000 0.000000 0.000000 
-42.886276 93.305862 10.167265 5.352459 -0.455379 98.782051 -3.370891 12.372299 -8.862354 1.954177 0.857896 -9.242467 -2.113422 20.245777 32.331249 -17.440632 -10.747564 29.783119 4.372323 -2.486873 -25.660297 -13.396213 30.022533 -79.912407 -5.399922 -7.218893 -49.773800 16.507662 -10.811336 -7.778384 -3.429235 3.925236 8.026903 65.841599 -2.702600 16.577288 26.505527 -12.641936 97.251656 -11.350649 -42.155155 23.963301 17.696899 -5.079839 1.035966 -0.176077 10.694009 8.845253 -4.585548 5.069029 6.716144 0.000000 0.000000 0.000000 -3.946440 -5.871918 -0.221140 -0.064538 26.689734 13.839574 5.665086 -7.948442 -19.100311 0.000000 0.000000 0.000000 
-42.952091 93.294197 10.530964 5.295690 -0.468122 98.386902 -3.373744 12.485392 -8.839086 1.804429 0.787012 -9.220632 -2.010429 20.313231 32.456718 -17.532461 -10.670540 29.910576 4.364703 -2.480277 -25.729012 -13.533450 29.640005 -80.133278 -4.748715 -6.810259 -49.593369 17.391218 -10.337809 -8.952314 -3.309942 3.883368 7.897709 65.577629 -3.026971 16.463255 25.506010 -12.222544 98.380829 -11.453966 -41.378410 24.106594 17.766930 -5.083649 0.380438 -0.222296 10.772972 8.597920 -4.637700 4.573325 6.809489 0.000000 0.000000 0.000000 -3.700181 -6.158111 0.151123 -0.029899 26.855309 13.848074 5.447898 -7.931095 -19.101292 0.000000 0.000000 0.000000 
-43.034668 93.285126 10.868816 5.210996 -0.426371 97.984451 -3.383441 12.609701 -8.819860 1.618387 0.676552 -9.203353 -2.051528 20.481178 32.614239 -17.562176 -10.830925 30.041927 4.335878 -2.540691 -25.854713 -13.784698 29.310196 -80.201828 -4.256911 -6.536808 -49.652370 18.239199 -10.013413 -9.587872 -3.215182 3.813134 7.791785 65.157738 -3.689917 16.430590 25.077276 -11.381258 99.247185 -11.335712 -40.698868 24.638367 17.708824 -5.206429 -0.091079 -0.147360 11.098819 8.320502 -4.911560 3.928493 6.804522 0.000000 0.000000 0.000000 -3.532403 -6.481713 0.495558 0.008163 27.049145 13.840998 5.237418 -7.921065 -19.069651 0.000000 0.000000 0.000000 
-43.126316 93.273186 11.207579 5.110329 -0.401964 97.619759 -3.312736 12.593436 -8.813521 1.317647 0.778726 -9.188120 -2.107603 20.642649 32.799934 -17.565710 -11.174825 30.180393 4.411393 -2.674456 -26.069006 -14.014363 28.919127 -80.263382 -3.925211 -6.510243 -49.639874 19.077143 -10.115948 -10.844358 -3.083223 3.652228 7.619378 64.833237 -4.270776 16.399212 24.291487 -10.492337 99.994392 -11.834825 -39.665840 25.254810 17.688442 -5.400725 -0.572467 -0.146447 11.485566 8.171279 -4.899288 3.458818 6.632997 0.000000 0.000000 0.000000 -3.348212 -6.830204 0.802952 0.033106 27.253025 13.812821 5.072093 -7.895970 -19.000618 0.000000 0.000000 0.000000 
-43.210350 93.261513 11.518020 5.046226 -0.348331 97.275955 -3.305561 12.844926 -8.887139 1.153435 0.511628 -9.264482 -2.103354 20.694426 32.984486 -17.559246 -11.077332 30.391466 4.411468 -2.685676 -26.004354 -14.104540 28.616442 -80.567337 -3.546569 -6.488075 -49.550823 20.006166 -10.213471 -12.018656 -3.042560 3.621392 7.672233 64.398941 -4.628970 16.421568 23.645042 -10.000641 101.187965 -12.924009 -39.253658 24.622908 17.659109 -5.569854 -1.068754 -0.242664 11.915839 7.981642 -5.163418 3.005764 6.551678 0.000000 0.000000 0.000000 -3.218806 -7.124875 1.132264 0.100028 27.456017 13.790402 4.921111 -7.891205 -18.973240 0.000000 0.000000 0.000000 
-43.299629 93.251404 11.801955 4.993552 -0.274213 96.959389 -3.308063 12.932193 -8.873660 0.833548 0.604043 -9.253089 -1.689754 20.676134 33.070007 -17.759760 -10.982081 30.471149 4.658214 -2.924427 -26.228109 -14.359121 28.226381 -80.871437 -3.028546 -6.326632 -49.161880 20.669470 -10.139132 -13.461999 -2.842177 3.444004 7.585219 63.943256 -4.813623 16.288782 22.646809 -9.724742 102.214218 -13.701106 -38.604908 25.219303 17.660454 -5.739970 -1.572063 -0.503255 12.339141 7.796181 -5.228620 2.635807 6.468543 0.000000 0.000000 0.000000 -3.136690 -7.421702 1.262677 0.095168 27.689804 13.969172 4.804216 -7.873374 -18.946907 0.000000 0.000000 0.000000 
